<svg width="32" height="30" viewBox="0 0 32 30" fill="none" xmlns="http://www.w3.org/2000/svg">
<path d="M30.147 11.2925L11.1804 0.48702C8.73374 -0.907304 5.69067 0.857157 5.69067 3.66894V25.2799C5.69067 28.0917 8.73374 29.854 11.1804 28.4618L30.1491 17.6563C32.6169 16.2515 32.6169 12.6994 30.1491 11.2946L30.147 11.2925Z" fill="url(#paint0_linear_553_316)"/>
<path d="M26.4717 25.2301L25.6791 3.45156C25.5761 0.642238 22.4797 -1.00845 20.0896 0.471913L1.73163 11.8606C-0.656392 13.3431 -0.555489 16.8526 1.91662 18.1921L21.0671 28.582C23.5581 29.9341 26.5747 28.0626 26.4717 25.2301Z" fill="url(#paint1_linear_553_316)"/>
<defs>
<linearGradient id="paint0_linear_553_316" x1="5.69067" y1="14.4744" x2="31.9994" y2="14.4744" gradientUnits="userSpaceOnUse">
<stop stop-color="#F2FF69"/>
<stop offset="1" stop-color="white"/>
</linearGradient>
<linearGradient id="paint1_linear_553_316" x1="0.00157623" y1="14.4744" x2="26.4759" y2="14.4744" gradientUnits="userSpaceOnUse">
<stop stop-color="white"/>
<stop offset="0.17" stop-color="#FEFFFB"/>
<stop offset="0.34" stop-color="#FDFFEF"/>
<stop offset="0.5" stop-color="#FCFFDC"/>
<stop offset="0.65" stop-color="#F9FFC2"/>
<stop offset="0.81" stop-color="#F6FF9F"/>
<stop offset="0.96" stop-color="#F3FF75"/>
<stop offset="1" stop-color="#F2FF69"/>
</linearGradient>
</defs>
</svg>
